<svg xmlns="http://www.w3.org/2000/svg" version="1.1" xmlns:xlink="http://www.w3.org/1999/xlink" width="512" height="512" x="0" y="0" viewBox="0 0 512.293 512.293" xml:space="preserve"><g><path d="M402.148 149.606C384.338 63.054 299.735 7.328 213.183 25.138 139.07 40.389 85.774 105.472 85.434 181.136c0 3.605.149 7.296.469 11.2C33.178 197.917-5.04 245.183.541 297.908c5.173 48.87 46.416 85.943 95.559 85.895h11.2c-.256-3.541-.533-7.061-.533-10.667 0-76.583 62.083-138.667 138.667-138.667S384.1 296.553 384.1 373.136c0 3.605-.277 7.125-.533 10.667h11.2c64.73.177 117.348-52.154 117.525-116.885.17-62.111-48.144-113.57-110.144-117.312z" style="" fill="#bad7ff" data-original="#bbdefb" opacity="1"></path><circle cx="245.434" cy="373.136" r="117.333" style="" fill="#549bff" data-original="#4caf50" opacity="1"></circle><path d="M245.434 447.803c-5.891 0-10.667-4.776-10.667-10.667v-128c0-5.891 4.776-10.667 10.667-10.667s10.667 4.776 10.667 10.667v128c-.001 5.891-4.776 10.667-10.667 10.667z" style="" fill="#fafafa" data-original="#fafafa"></path><path d="M245.434 447.803a10.663 10.663 0 0 1-7.552-3.115l-42.667-42.667c-4.093-4.237-3.975-10.99.262-15.083a10.666 10.666 0 0 1 14.821 0l35.136 35.115 35.115-35.115c4.237-4.093 10.99-3.975 15.083.262a10.666 10.666 0 0 1 0 14.821l-42.667 42.667a10.672 10.672 0 0 1-7.531 3.115z" style="" fill="#fafafa" data-original="#fafafa"></path></g></svg>