<svg xmlns="http://www.w3.org/2000/svg" version="1.1" xmlns:xlink="http://www.w3.org/1999/xlink" width="512" height="512" x="0" y="0" viewBox="0 0 90 90" xml:space="preserve"><g><path d="M66.615 20.455c-2.923 0-4.36 3.559-2.261 5.588a27.346 27.346 0 0 1 5.928 29.822A27.343 27.343 0 0 1 45 72.756a27.348 27.348 0 0 1-25.287-16.891 27.336 27.336 0 0 1 5.932-29.822 3.254 3.254 0 0 0 .068-4.666 3.248 3.248 0 0 0-4.661.066 33.878 33.878 0 0 0-7.344 36.908A33.888 33.888 0 0 0 45 79.256c13.687 0 26.052-8.26 31.291-20.904 5.24-12.646 2.333-27.229-7.343-36.908a3.246 3.246 0 0 0-2.333-.989z" fill="#4f4f4f" opacity="1" data-original="#000000"></path><path d="M44.984 10.784a3.248 3.248 0 0 0-3.202 3.292l-.058 30.048a3.246 3.246 0 0 0 3.238 3.373 3.254 3.254 0 0 0 3.257-3.369l.057-30.042a3.254 3.254 0 0 0-3.292-3.302z" fill="#4f4f4f" opacity="1" data-original="#000000"></path></g></svg>